<?xml version="1.0" encoding="utf-8"?>
<!-- Generator: Adobe Illustrator 16.0.0, SVG Export Plug-In . SVG Version: 6.00 Build 0)  -->
<!DOCTYPE svg PUBLIC "-//W3C//DTD SVG 1.1//EN" "http://www.w3.org/Graphics/SVG/1.1/DTD/svg11.dtd">
<svg version="1.1" id="Layer_1" xmlns="http://www.w3.org/2000/svg" xmlns:xlink="http://www.w3.org/1999/xlink" x="0px" y="0px"
	 width="221px" height="57px" viewBox="0 0 221 57" enable-background="new 0 0 221 57" xml:space="preserve">
<g>
	<path fill="#FE5A1D" stroke="#CE2029" stroke-miterlimit="10" d="M42.277,47.221L3.746,31.081v-4.978L42.277,9.92v5.968
		L11.27,28.605l31.008,12.646V47.221z"/>
	<path fill="#FE5A1D" stroke="#CE2029" stroke-miterlimit="10" d="M48.922,53.057v-5.941h6.047v-37.02h-6.047V4.154h12.586v19.688
		c3.352-3.844,7.465-5.766,12.34-5.766c4.688,0,8.619,1.612,11.795,4.834c3.176,3.223,4.764,7.471,4.764,12.744
		c0,5.062-1.553,9.322-4.658,12.779c-3.105,3.458-7.084,5.186-11.936,5.186c-2.719,0-5.203-0.585-7.453-1.758
		c-2.25-1.172-3.867-2.473-4.852-3.902v5.098H48.922z M61.719,36.111c0,3.539,1.084,6.346,3.252,8.42s4.67,3.111,7.506,3.111
		c2.977,0,5.543-1.102,7.699-3.305c2.156-2.203,3.234-5.156,3.234-8.859c0-3.586-1.072-6.369-3.217-8.35
		c-2.145-1.98-4.658-2.971-7.541-2.971c-2.836,0-5.367,1.025-7.594,3.076C62.832,29.286,61.719,32.244,61.719,36.111z"/>
	<path fill="#FE5A1D" stroke="#CE2029" stroke-miterlimit="10" d="M101.973,47.115V24.967h-6.855v-5.941h12.199v7.664
		c0.75-1.992,1.793-3.644,3.129-4.957c1.336-1.312,2.748-2.18,4.236-2.602s3.521-0.633,6.1-0.633h1.758v6.75h-1.336
		c-3.398,0-5.936,0.34-7.611,1.02c-1.676,0.68-2.918,1.916-3.727,3.709s-1.213,5.01-1.213,9.65v7.488h7.418v5.941H95.117v-5.941
		H101.973z"/>
	<path fill="#FE5A1D" stroke="#CE2029" stroke-miterlimit="10" d="M166.884,3.17h5.841l-24.957,50.66h-5.84L166.884,3.17z"/>
	<path fill="#FE5A1D" stroke="#CE2029" stroke-miterlimit="10" d="M177.84,9.92l38.531,16.183v4.978l-38.531,16.14v-5.97
		l31.008-12.646L177.84,15.888V9.92z"/>
</g>
<g>
</g>
<g>
</g>
<g>
</g>
<g>
</g>
<g>
</g>
<g>
</g>
<g>
</g>
<g>
</g>
<g>
</g>
<g>
</g>
<g>
</g>
<g>
</g>
<g>
</g>
<g>
</g>
<g>
</g>
</svg>
