<?xml version="1.0" encoding="utf-8"?>
<!-- Generator: Adobe Illustrator 16.0.0, SVG Export Plug-In . SVG Version: 6.00 Build 0)  -->
<!DOCTYPE svg PUBLIC "-//W3C//DTD SVG 1.1//EN" "http://www.w3.org/Graphics/SVG/1.1/DTD/svg11.dtd">
<svg version="1.1" id="Layer_1" xmlns="http://www.w3.org/2000/svg" xmlns:xlink="http://www.w3.org/1999/xlink" x="0px" y="0px"
	 width="729px" height="61px" viewBox="0 0 729 61" enable-background="new 0 0 729 61" xml:space="preserve">
<g>
	<path fill="#FE5A1D" stroke="#CE2029" stroke-miterlimit="10" d="M11.115,56.066c-2.736,0-4.669-0.54-5.796-1.62
		c-1.128-1.08-1.692-2.675-1.692-4.788c0-0.623,0.036-1.62,0.108-2.988c0.072-1.368,0.18-2.988,0.324-4.86s0.299-3.912,0.468-6.12
		c0.168-2.207,0.348-4.464,0.54-6.768c0.24-2.832,0.443-5.267,0.612-7.308c0.167-2.04,0.299-3.791,0.396-5.256
		c0.096-1.463,0.18-2.688,0.252-3.672c0.072-0.983,0.119-1.847,0.144-2.592c0.023-0.744,0.047-1.427,0.072-2.052
		c0.024-0.624,0.036-1.296,0.036-2.016c0-0.384,0.119-0.659,0.36-0.828c0.24-0.167,0.479-0.252,0.72-0.252
		c1.248,0,2.616-0.036,4.104-0.108c1.487-0.072,2.976-0.155,4.464-0.252c1.487-0.096,2.927-0.18,4.32-0.252
		c1.392-0.072,2.616-0.108,3.672-0.108c3.071,0,5.711,0.372,7.92,1.116c2.207,0.745,3.996,1.825,5.364,3.24
		c1.368,1.417,2.376,3.132,3.024,5.148c0.648,2.016,0.972,4.32,0.972,6.912c0,2.833-0.373,5.556-1.116,8.172
		c-0.745,2.617-1.908,4.932-3.492,6.948c-1.584,2.016-3.625,3.625-6.12,4.824c-2.496,1.2-5.472,1.8-8.928,1.8
		c-2.064,0-3.816-0.216-5.256-0.648l-1.008,13.248c-0.048,0.385-0.144,0.661-0.288,0.828c-0.144,0.169-0.432,0.252-0.864,0.252
		H11.115z M22.779,15.026c-0.625,0-1.321,0.036-2.088,0.108c-0.768,0.072-1.584,0.157-2.448,0.252
		c-0.097,2.016-0.216,4.464-0.36,7.344c-0.144,2.88-0.336,5.904-0.576,9.072c0.72,0.192,1.428,0.324,2.124,0.396
		c0.695,0.072,1.332,0.108,1.908,0.108c1.68,0,3.036-0.396,4.068-1.188c1.031-0.792,1.836-1.764,2.412-2.916
		c0.576-1.152,0.96-2.352,1.152-3.6c0.191-1.248,0.288-2.328,0.288-3.24c0-2.063-0.468-3.636-1.404-4.716
		S25.227,15.026,22.779,15.026z"/>
	<path fill="#FE5A1D" stroke="#CE2029" stroke-miterlimit="10" d="M68.499,33.674c-0.288,0-0.612-0.011-0.972-0.036
		c-0.36-0.023-0.708-0.072-1.044-0.144c-0.336-0.072-0.625-0.168-0.864-0.288c-0.241-0.12-0.36-0.276-0.36-0.468
		c0-0.623,0.024-1.199,0.072-1.728c0.047-0.527,0.072-1.08,0.072-1.656c0-1.055-0.144-1.919-0.432-2.592
		c-0.288-0.671-0.864-1.008-1.728-1.008c-1.345,0-2.46,0.876-3.348,2.628c-0.889,1.753-1.452,4.381-1.692,7.884
		c-0.097,1.537-0.229,3.276-0.396,5.22c-0.169,1.944-0.324,3.816-0.468,5.616c-0.144,1.8-0.264,3.396-0.36,4.788
		c-0.097,1.393-0.144,2.304-0.144,2.736c0,0.48-0.168,0.84-0.504,1.08c-0.336,0.241-0.696,0.36-1.08,0.36h-2.592
		c-1.489,0-2.7-0.155-3.636-0.468c-0.936-0.312-1.681-0.756-2.232-1.332c-0.552-0.576-0.936-1.284-1.152-2.124
		c-0.216-0.839-0.324-1.812-0.324-2.916c0-0.72,0.036-1.739,0.108-3.06c0.072-1.32,0.204-3.144,0.396-5.472
		c0.191-2.328,0.42-5.28,0.684-8.856c0.263-3.575,0.587-8.003,0.972-13.284c0.096-1.392,0.6-2.088,1.512-2.088h2.808
		c1.343,0,2.472,0.144,3.384,0.432c0.911,0.288,1.656,0.684,2.232,1.188c0.576,0.504,0.996,1.092,1.26,1.764
		c0.263,0.672,0.443,1.368,0.54,2.088c0.576-1.104,1.26-2.052,2.052-2.844s1.62-1.44,2.484-1.944
		c0.864-0.504,1.751-0.864,2.664-1.08c0.911-0.216,1.751-0.324,2.52-0.324c0.911,0,1.836,0.168,2.772,0.504
		c0.936,0.336,1.788,0.84,2.556,1.512c0.768,0.673,1.379,1.537,1.836,2.592c0.456,1.056,0.684,2.304,0.684,3.744
		c0,1.296-0.192,2.52-0.576,3.672c-0.385,1.152-0.936,2.172-1.656,3.06c-0.72,0.889-1.596,1.584-2.628,2.088
		C70.886,33.422,69.747,33.674,68.499,33.674z"/>
	<path fill="#FE5A1D" stroke="#CE2029" stroke-miterlimit="10" d="M95.858,56.787c-3.312,0-6.061-0.468-8.244-1.404
		c-2.185-0.936-3.924-2.22-5.22-3.852c-1.296-1.631-2.208-3.539-2.736-5.724c-0.529-2.184-0.792-4.524-0.792-7.02
		c0-2.88,0.348-5.7,1.044-8.46c0.695-2.759,1.883-5.22,3.564-7.38c1.68-2.16,3.899-3.899,6.66-5.22
		c2.76-1.32,6.203-1.98,10.332-1.98c6.048,0,10.379,1.476,12.996,4.428c2.616,2.952,3.924,7.092,3.924,12.42
		c0,1.489-0.108,3.132-0.324,4.932c-0.216,1.8-0.625,3.589-1.224,5.364c-0.601,1.776-1.417,3.504-2.448,5.184
		c-1.033,1.681-2.34,3.168-3.924,4.464c-1.584,1.296-3.492,2.329-5.724,3.096C101.51,56.402,98.882,56.787,95.858,56.787z
		 M99.242,25.322c-1.825,0-3.276,0.468-4.356,1.404s-1.896,2.064-2.448,3.384c-0.553,1.321-0.913,2.712-1.08,4.176
		c-0.169,1.464-0.252,2.7-0.252,3.708c0,3.168,0.504,5.497,1.512,6.984c1.008,1.488,2.448,2.232,4.32,2.232
		c1.68,0,3.06-0.528,4.14-1.584c1.08-1.055,1.919-2.328,2.52-3.816c0.6-1.487,1.008-3.048,1.224-4.68
		c0.216-1.631,0.324-2.999,0.324-4.104c0-2.399-0.444-4.284-1.332-5.652C102.926,26.006,101.402,25.322,99.242,25.322z"/>
	<path fill="#FE5A1D" stroke="#CE2029" stroke-miterlimit="10" d="M135.961,56.787c-1.872,0-3.661-0.336-5.364-1.008
		c-1.705-0.671-3.193-1.728-4.464-3.168c-1.272-1.44-2.28-3.264-3.024-5.472c-0.745-2.207-1.116-4.871-1.116-7.992
		c0-1.392,0.096-2.94,0.288-4.644c0.191-1.703,0.527-3.42,1.008-5.148c0.479-1.728,1.152-3.408,2.016-5.04
		c0.864-1.631,1.955-3.083,3.276-4.356c1.319-1.271,2.904-2.292,4.752-3.06c1.847-0.767,4.02-1.152,6.516-1.152
		c2.399,0,4.331,0.42,5.796,1.26c1.463,0.84,2.387,2.293,2.772,4.356c0.096-1.872,0.191-3.503,0.288-4.896
		c0.096-1.392,0.18-2.688,0.252-3.888c0.072-1.199,0.155-2.4,0.252-3.6c0.096-1.199,0.191-2.567,0.288-4.104
		c0.047-1.055,0.167-1.68,0.36-1.872c0.096-0.096,0.216-0.155,0.36-0.18c0.144-0.023,0.407-0.036,0.792-0.036h2.808
		c1.44,0,2.639,0.168,3.6,0.504c0.959,0.336,1.728,0.792,2.304,1.368c0.576,0.576,0.983,1.237,1.224,1.98
		c0.24,0.745,0.36,1.524,0.36,2.34c-0.192,2.401-0.36,4.597-0.504,6.588c-0.144,1.992-0.312,4.26-0.504,6.804
		c-0.192,2.544-0.385,5.172-0.576,7.884c-0.192,2.712-0.385,5.4-0.576,8.064c-0.192,2.664-0.385,5.112-0.576,7.344
		c-0.192,2.232-0.349,4.152-0.468,5.76c-0.121,1.609-0.205,2.676-0.252,3.204c-0.097,0.576-0.216,0.96-0.36,1.152
		c-0.144,0.192-0.552,0.288-1.224,0.288h-2.592c-1.008,0-1.956-0.083-2.844-0.252c-0.889-0.167-1.656-0.456-2.304-0.864
		c-0.648-0.407-1.152-0.959-1.512-1.656c-0.36-0.695-0.54-1.595-0.54-2.7c-0.864,1.825-2.172,3.312-3.924,4.464
		C140.797,56.21,138.601,56.787,135.961,56.787z M142.226,25.322c-2.448,0-4.26,1.069-5.436,3.204
		c-1.177,2.136-1.764,5.004-1.764,8.604c0,1.249,0.083,2.473,0.252,3.672c0.168,1.201,0.468,2.281,0.9,3.24
		c0.432,0.96,1.019,1.728,1.764,2.304c0.744,0.576,1.692,0.864,2.844,0.864c2.063,0,3.791-1.008,5.184-3.024
		c1.392-2.016,2.088-5.184,2.088-9.504c0-1.199-0.072-2.364-0.216-3.492c-0.144-1.127-0.432-2.124-0.864-2.988
		c-0.432-0.864-1.033-1.56-1.8-2.088C144.409,25.587,143.425,25.322,142.226,25.322z"/>
	<path fill="#FE5A1D" stroke="#CE2029" stroke-miterlimit="10" d="M180.312,22.586c0,1.008-0.084,2.424-0.252,4.248
		c-0.169,1.825-0.336,3.72-0.504,5.688c-0.169,1.969-0.336,3.816-0.504,5.544c-0.168,1.728-0.252,2.977-0.252,3.744
		c0,1.681,0.42,2.988,1.26,3.924c0.839,0.936,2.003,1.404,3.492,1.404c1.296,0,2.387-0.515,3.276-1.548
		c0.887-1.032,1.607-2.376,2.16-4.032c0.551-1.656,0.996-3.54,1.332-5.652c0.335-2.111,0.587-4.248,0.756-6.408
		c0.168-2.16,0.312-4.259,0.432-6.3c0.119-2.04,0.252-3.803,0.396-5.292c0.047-0.383,0.191-0.72,0.432-1.008
		c0.24-0.288,0.623-0.432,1.152-0.432h2.592c1.487,0,2.7,0.156,3.636,0.468c0.936,0.312,1.68,0.756,2.232,1.332
		c0.551,0.576,0.936,1.285,1.152,2.124c0.216,0.84,0.324,1.812,0.324,2.916c0,0.72-0.036,1.74-0.108,3.06
		c-0.072,1.321-0.205,3.145-0.396,5.472c-0.192,2.329-0.421,5.281-0.684,8.856c-0.264,3.577-0.588,8.004-0.972,13.284
		c-0.097,1.008-0.205,1.608-0.324,1.8c-0.121,0.192-0.517,0.288-1.188,0.288h-2.808c-1.44,0-2.628-0.167-3.564-0.504
		c-0.936-0.335-1.692-0.768-2.268-1.296c-0.576-0.528-0.984-1.152-1.224-1.872c-0.241-0.72-0.385-1.464-0.432-2.232
		c-0.72,1.249-1.524,2.304-2.412,3.168c-0.889,0.864-1.812,1.548-2.772,2.052c-0.961,0.504-1.944,0.864-2.952,1.08
		c-1.008,0.216-1.992,0.324-2.952,0.324c-1.825,0-3.456-0.301-4.896-0.9c-1.44-0.6-2.652-1.404-3.636-2.412
		c-0.984-1.008-1.74-2.208-2.268-3.6c-0.529-1.392-0.792-2.88-0.792-4.464c0-0.624,0.036-1.644,0.108-3.06
		c0.072-1.416,0.168-3.012,0.288-4.788c0.119-1.775,0.252-3.66,0.396-5.652c0.144-1.992,0.276-3.876,0.396-5.652
		c0.119-1.775,0.24-3.335,0.36-4.68c0.12-1.343,0.204-2.304,0.252-2.88c0.096-0.864,0.288-1.451,0.576-1.764
		c0.288-0.312,0.767-0.468,1.44-0.468h2.304c1.487,0,2.711,0.144,3.672,0.432c0.959,0.288,1.716,0.696,2.268,1.224
		c0.551,0.529,0.936,1.164,1.152,1.908C180.205,20.775,180.312,21.627,180.312,22.586z"/>
	<path fill="#FE5A1D" stroke="#CE2029" stroke-miterlimit="10" d="M227.904,47.21c1.392,0,2.603-0.191,3.636-0.576
		c1.032-0.383,1.932-0.815,2.7-1.296c0.767-0.479,1.415-0.911,1.944-1.296c0.528-0.384,1.008-0.576,1.44-0.576
		c1.104,0,1.656,0.72,1.656,2.16c0,0.336-0.072,0.804-0.216,1.404c-0.144,0.601-0.336,1.224-0.576,1.872
		c-0.241,0.648-0.493,1.26-0.756,1.836c-0.264,0.576-0.516,1.008-0.756,1.296c-0.241,0.241-0.66,0.625-1.26,1.152
		c-0.601,0.529-1.404,1.056-2.412,1.584c-1.008,0.529-2.185,0.997-3.528,1.404c-1.344,0.407-2.833,0.612-4.464,0.612
		c-1.825,0-3.708-0.277-5.652-0.828s-3.708-1.512-5.292-2.88c-1.584-1.368-2.893-3.215-3.924-5.544
		c-1.033-2.328-1.548-5.243-1.548-8.748c0-1.248,0.083-2.675,0.252-4.284c0.168-1.607,0.516-3.264,1.044-4.968
		c0.528-1.703,1.235-3.384,2.124-5.04c0.888-1.656,2.076-3.132,3.564-4.428c1.487-1.296,3.276-2.34,5.364-3.132
		s4.572-1.188,7.452-1.188c2.351,0,4.379,0.276,6.084,0.828c1.703,0.553,3.107,1.296,4.212,2.232
		c1.104,0.936,1.932,2.028,2.484,3.276c0.551,1.249,0.828,2.592,0.828,4.032c0,2.592-0.817,4.5-2.448,5.724
		c-1.632,1.224-3.936,1.836-6.912,1.836c-0.72,0-1.213-0.06-1.476-0.18c-0.265-0.12-0.396-0.396-0.396-0.828
		c0-1.152-0.025-2.184-0.072-3.096c-0.048-0.911-0.18-1.68-0.396-2.304c-0.216-0.624-0.54-1.104-0.972-1.44
		c-0.432-0.335-1.057-0.504-1.872-0.504c-1.488,0-2.677,0.48-3.564,1.44c-0.889,0.961-1.561,2.124-2.016,3.492
		c-0.457,1.368-0.745,2.772-0.864,4.212c-0.12,1.44-0.18,2.641-0.18,3.6c0,3.409,0.54,5.785,1.62,7.128
		C223.835,46.539,225.551,47.21,227.904,47.21z"/>
	<path fill="#FE5A1D" stroke="#CE2029" stroke-miterlimit="10" d="M261.816,26.187c-0.144,1.825-0.3,3.625-0.468,5.4
		c-0.168,1.776-0.324,3.456-0.468,5.04s-0.252,3-0.324,4.248c-0.072,1.249-0.108,2.208-0.108,2.88c0,1.249,0.144,2.077,0.432,2.484
		c0.288,0.409,0.767,0.612,1.44,0.612c0.528,0,0.983-0.096,1.368-0.288c0.383-0.191,0.744-0.407,1.08-0.648
		c0.335-0.24,0.636-0.456,0.9-0.648c0.263-0.191,0.563-0.288,0.9-0.288c0.335,0,0.648,0.192,0.936,0.576
		c0.288,0.385,0.432,1.272,0.432,2.664c0,2.641-0.72,4.729-2.16,6.264c-1.44,1.537-3.913,2.304-7.416,2.304
		c-3.456,0-6.012-0.803-7.668-2.412c-1.656-1.608-2.484-4.068-2.484-7.38c0-0.72,0.036-1.572,0.108-2.556
		c0.072-0.983,0.18-2.268,0.324-3.852s0.324-3.528,0.54-5.832c0.216-2.304,0.443-5.159,0.684-8.568h-3.816
		c-0.385,0-0.612-0.083-0.684-0.252c-0.072-0.168-0.108-0.42-0.108-0.756l0.216-3.672c0.047-0.623,0.132-1.235,0.252-1.836
		c0.12-0.6,0.36-1.14,0.72-1.62c0.36-0.479,0.875-0.864,1.548-1.152c0.672-0.288,1.56-0.432,2.664-0.432
		c0.335-0.864,0.72-1.896,1.152-3.096c0.432-1.199,0.864-2.364,1.296-3.492c0.432-1.127,0.852-2.076,1.26-2.844
		c0.407-0.767,0.78-1.152,1.116-1.152h2.088c2.016,0,3.408,0.625,4.176,1.872c0.768,1.249,1.152,2.736,1.152,4.464
		c0,0.961-0.072,2.376-0.216,4.248h7.56c0.767,0,1.152,0.336,1.152,1.008l-0.288,3.888c-0.097,1.44-0.493,2.604-1.188,3.492
		c-0.697,0.889-2.124,1.332-4.284,1.332H261.816z"/>
	<path fill="#FE5A1D" stroke="#CE2029" stroke-miterlimit="10" d="M282.479,56.066c-1.489,0-2.7-0.155-3.636-0.468
		c-0.936-0.312-1.681-0.756-2.232-1.332c-0.552-0.576-0.936-1.284-1.152-2.124c-0.216-0.839-0.324-1.812-0.324-2.916
		c0-0.72,0.036-1.739,0.108-3.06c0.072-1.32,0.204-3.144,0.396-5.472c0.191-2.328,0.42-5.28,0.684-8.856
		c0.263-3.575,0.587-8.003,0.972-13.284c0.047-1.055,0.167-1.679,0.36-1.872c0.144-0.144,0.528-0.216,1.152-0.216h2.808
		c1.487,0,2.7,0.144,3.636,0.432s1.68,0.72,2.232,1.296c0.551,0.576,0.936,1.272,1.152,2.088c0.216,0.817,0.324,1.728,0.324,2.736
		c0,0.72-0.048,1.8-0.144,3.24c-0.097,1.44-0.229,3.396-0.396,5.868c-0.169,2.473-0.396,5.544-0.684,9.216
		c-0.288,3.672-0.648,8.1-1.08,13.284c-0.048,0.576-0.168,0.96-0.36,1.152c-0.192,0.192-0.601,0.288-1.224,0.288H282.479z
		 M277.366,7.97c0-1.919,0.695-3.431,2.088-4.536c1.392-1.104,3.263-1.656,5.616-1.656c2.063,0,3.564,0.421,4.5,1.26
		c0.936,0.84,1.404,1.956,1.404,3.348c0,1.776-0.66,3.252-1.98,4.428c-1.32,1.177-3.252,1.764-5.796,1.764
		C279.311,12.579,277.366,11.043,277.366,7.97z"/>
	<path fill="#FE5A1D" stroke="#CE2029" stroke-miterlimit="10" d="M311.782,46.922c0.576-2.016,1.116-4.007,1.62-5.976
		c0.504-1.967,1.008-4.068,1.512-6.3c0.504-2.232,1.056-4.68,1.656-7.344c0.6-2.664,1.307-5.699,2.124-9.108
		c0.144-0.671,0.36-1.116,0.648-1.332c0.288-0.216,0.911-0.324,1.872-0.324c0.72,0,1.68,0.024,2.88,0.072
		c1.199,0.048,2.376,0.216,3.528,0.504c1.152,0.288,2.148,0.72,2.988,1.296c0.839,0.576,1.26,1.368,1.26,2.376
		c0,0.816-0.288,2.136-0.864,3.96c-0.576,1.825-1.321,3.9-2.232,6.228c-0.913,2.329-1.933,4.764-3.06,7.308
		c-1.128,2.545-2.221,4.944-3.276,7.2c-1.057,2.257-2.041,4.237-2.952,5.94c-0.913,1.705-1.584,2.893-2.016,3.564
		c-0.385,0.529-0.72,0.84-1.008,0.936c-0.288,0.097-0.769,0.144-1.44,0.144h-6.408c-1.008,0-1.836-0.18-2.484-0.54
		s-1.188-0.828-1.62-1.404c-0.432-0.576-0.792-1.235-1.08-1.98c-0.288-0.744-0.552-1.523-0.792-2.34
		c-1.393-4.799-2.604-8.916-3.636-12.348c-1.033-3.432-1.908-6.3-2.628-8.604c-0.72-2.304-1.296-4.14-1.728-5.508
		c-0.432-1.368-0.769-2.423-1.008-3.168c-0.241-0.744-0.408-1.248-0.504-1.512c-0.097-0.264-0.144-0.443-0.144-0.54
		c0.047-0.335,0.288-0.695,0.72-1.08c0.432-0.384,0.983-0.576,1.656-0.576c2.208,0,4.092,0.084,5.652,0.252
		c1.56,0.169,2.855,0.468,3.888,0.9c1.032,0.432,1.824,1.033,2.376,1.8c0.551,0.769,0.947,1.776,1.188,3.024
		c0.047,0.336,0.144,1.008,0.288,2.016c0.144,1.008,0.299,2.221,0.468,3.636c0.168,1.417,0.372,2.977,0.612,4.68
		c0.24,1.705,0.468,3.409,0.684,5.112c0.216,1.705,0.432,3.348,0.648,4.932C311.386,44.402,311.589,45.771,311.782,46.922z"/>
	<path fill="#FE5A1D" stroke="#CE2029" stroke-miterlimit="10" d="M351.67,56.787c-2.113,0-4.212-0.265-6.3-0.792
		c-2.088-0.528-3.96-1.44-5.616-2.736c-1.656-1.296-3.013-3.024-4.068-5.184c-1.057-2.16-1.584-4.871-1.584-8.136
		c0-1.199,0.096-2.639,0.288-4.32c0.191-1.679,0.563-3.407,1.116-5.184c0.551-1.775,1.32-3.54,2.304-5.292
		c0.983-1.752,2.268-3.323,3.852-4.716c1.584-1.392,3.503-2.52,5.76-3.384c2.256-0.864,4.943-1.296,8.064-1.296
		c2.495,0,4.608,0.288,6.336,0.864s3.12,1.357,4.176,2.34c1.055,0.984,1.824,2.124,2.304,3.42c0.479,1.296,0.72,2.688,0.72,4.176
		c0,2.208-0.444,4.081-1.332,5.616c-0.889,1.537-2.041,2.82-3.456,3.852c-1.417,1.033-2.988,1.836-4.716,2.412
		c-1.728,0.576-3.433,1.021-5.112,1.332c-1.681,0.313-3.229,0.504-4.644,0.576c-1.416,0.072-2.508,0.108-3.276,0.108
		c0,0.913,0.132,1.812,0.396,2.7c0.263,0.889,0.659,1.668,1.188,2.34c0.528,0.673,1.224,1.224,2.088,1.656
		c0.864,0.432,1.919,0.648,3.168,0.648c1.248,0,2.219-0.204,2.916-0.612c0.695-0.407,1.26-0.864,1.692-1.368
		c0.432-0.504,0.803-0.96,1.116-1.368c0.312-0.407,0.731-0.612,1.26-0.612c0.24,0,0.659,0.061,1.26,0.18
		c0.6,0.121,1.212,0.373,1.836,0.756c0.624,0.385,1.176,0.913,1.656,1.584c0.479,0.673,0.72,1.537,0.72,2.592
		c0,1.393-0.432,2.592-1.296,3.6c-0.864,1.008-1.98,1.825-3.348,2.448c-1.368,0.625-2.892,1.08-4.572,1.368
		C354.885,56.643,353.254,56.787,351.67,56.787z M353.038,25.322c-1.057,0-1.957,0.3-2.7,0.9c-0.745,0.601-1.368,1.357-1.872,2.268
		c-0.504,0.913-0.889,1.92-1.152,3.024c-0.264,1.104-0.468,2.16-0.612,3.168c2.976-0.047,5.387-0.551,7.236-1.512
		c1.847-0.959,2.772-2.328,2.772-4.104c0-0.959-0.3-1.824-0.9-2.592C355.209,25.707,354.286,25.322,353.038,25.322z"/>
	<path fill="#FE5A1D" stroke="#CE2029" stroke-miterlimit="10" d="M388.246,56.787c-2.833,0-5.16-0.18-6.984-0.54
		c-1.825-0.36-3.276-0.888-4.356-1.584c-1.08-0.695-1.825-1.572-2.232-2.628c-0.409-1.055-0.612-2.304-0.612-3.744
		c0-0.432,0.024-1.044,0.072-1.836c0.047-0.792,0.119-1.908,0.216-3.348c0.096-1.44,0.227-3.3,0.396-5.58
		c0.167-2.279,0.396-5.148,0.684-8.604c0.335-4.271,0.6-7.656,0.792-10.152c0.191-2.495,0.335-4.428,0.432-5.796
		c0.096-1.368,0.155-2.328,0.18-2.88c0.024-0.551,0.036-1.019,0.036-1.404c0-0.767,0.011-1.392,0.036-1.872
		c0.023-0.479,0.072-0.852,0.144-1.116c0.072-0.264,0.191-0.456,0.36-0.576c0.167-0.119,0.419-0.18,0.756-0.18
		c2.832-0.191,5.244-0.335,7.236-0.432c1.991-0.096,3.731-0.144,5.22-0.144c3.647,0,6.779,0.3,9.396,0.9
		c2.616,0.601,4.74,1.452,6.372,2.556c1.631,1.105,2.832,2.473,3.6,4.104c0.767,1.633,1.152,3.481,1.152,5.544
		c0,1.152-0.12,2.34-0.36,3.564c-0.241,1.224-0.648,2.388-1.224,3.492c-0.576,1.105-1.357,2.077-2.34,2.916
		c-0.984,0.84-2.221,1.453-3.708,1.836c2.783,0.864,4.752,2.293,5.904,4.284c1.152,1.992,1.728,4.356,1.728,7.092
		c0,2.208-0.36,4.284-1.08,6.228c-0.72,1.944-1.969,3.648-3.744,5.112c-1.776,1.465-4.129,2.628-7.056,3.492
		C396.333,56.354,392.661,56.787,388.246,56.787z M392.35,34.466c-0.529,0-1.177,0.036-1.944,0.108
		c-0.769,0.072-1.561,0.18-2.376,0.324l-0.792,11.736c1.728,0.529,3.287,0.792,4.68,0.792c1.487,0,2.688-0.216,3.6-0.648
		c0.911-0.432,1.62-0.972,2.124-1.62c0.504-0.648,0.839-1.368,1.008-2.16c0.168-0.792,0.252-1.523,0.252-2.196
		c0-1.775-0.493-3.276-1.476-4.5C396.441,35.079,394.75,34.466,392.35,34.466z M389.326,14.667c-0.097,1.249-0.18,2.712-0.252,4.392
		c-0.072,1.681-0.18,3.504-0.324,5.472c1.536,0.385,2.904,0.576,4.104,0.576c1.44,0,2.592-0.167,3.456-0.504
		c0.864-0.335,1.548-0.768,2.052-1.296c0.504-0.528,0.839-1.104,1.008-1.728c0.167-0.624,0.252-1.224,0.252-1.8
		c0-1.487-0.493-2.772-1.476-3.852c-0.984-1.08-2.676-1.62-5.076-1.62c-0.529,0-1.116,0.036-1.764,0.108
		C390.658,14.486,389.997,14.571,389.326,14.667z"/>
	<path fill="#FE5A1D" stroke="#CE2029" stroke-miterlimit="10" d="M440.158,33.674c-0.288,0-0.612-0.011-0.972-0.036
		c-0.36-0.023-0.708-0.072-1.044-0.144c-0.336-0.072-0.625-0.168-0.864-0.288c-0.241-0.12-0.36-0.276-0.36-0.468
		c0-0.623,0.024-1.199,0.072-1.728c0.047-0.527,0.072-1.08,0.072-1.656c0-1.055-0.144-1.919-0.432-2.592
		c-0.288-0.671-0.864-1.008-1.728-1.008c-1.345,0-2.46,0.876-3.348,2.628c-0.889,1.753-1.452,4.381-1.692,7.884
		c-0.097,1.537-0.229,3.276-0.396,5.22c-0.169,1.944-0.324,3.816-0.468,5.616c-0.144,1.8-0.264,3.396-0.36,4.788
		c-0.097,1.393-0.144,2.304-0.144,2.736c0,0.48-0.168,0.84-0.504,1.08c-0.336,0.241-0.696,0.36-1.08,0.36h-2.592
		c-1.489,0-2.7-0.155-3.636-0.468c-0.936-0.312-1.681-0.756-2.232-1.332c-0.552-0.576-0.936-1.284-1.152-2.124
		c-0.216-0.839-0.324-1.812-0.324-2.916c0-0.72,0.036-1.739,0.108-3.06c0.072-1.32,0.204-3.144,0.396-5.472
		c0.191-2.328,0.42-5.28,0.684-8.856c0.263-3.575,0.587-8.003,0.972-13.284c0.096-1.392,0.6-2.088,1.512-2.088h2.808
		c1.343,0,2.472,0.144,3.384,0.432c0.911,0.288,1.656,0.684,2.232,1.188c0.576,0.504,0.996,1.092,1.26,1.764
		c0.263,0.672,0.443,1.368,0.54,2.088c0.576-1.104,1.26-2.052,2.052-2.844s1.62-1.44,2.484-1.944
		c0.864-0.504,1.751-0.864,2.664-1.08c0.911-0.216,1.751-0.324,2.52-0.324c0.911,0,1.836,0.168,2.772,0.504
		c0.936,0.336,1.788,0.84,2.556,1.512c0.768,0.673,1.379,1.537,1.836,2.592c0.456,1.056,0.684,2.304,0.684,3.744
		c0,1.296-0.192,2.52-0.576,3.672c-0.385,1.152-0.936,2.172-1.656,3.06c-0.72,0.889-1.596,1.584-2.628,2.088
		C442.545,33.422,441.405,33.674,440.158,33.674z"/>
	<path fill="#FE5A1D" stroke="#CE2029" stroke-miterlimit="10" d="M468.021,56.787c-2.113,0-4.212-0.265-6.3-0.792
		c-2.088-0.528-3.96-1.44-5.616-2.736c-1.656-1.296-3.013-3.024-4.068-5.184c-1.057-2.16-1.584-4.871-1.584-8.136
		c0-1.199,0.096-2.639,0.288-4.32c0.191-1.679,0.563-3.407,1.116-5.184c0.551-1.775,1.32-3.54,2.304-5.292
		c0.983-1.752,2.268-3.323,3.852-4.716c1.584-1.392,3.503-2.52,5.76-3.384c2.256-0.864,4.943-1.296,8.064-1.296
		c2.495,0,4.608,0.288,6.336,0.864s3.12,1.357,4.176,2.34c1.056,0.984,1.823,2.124,2.304,3.42c0.479,1.296,0.721,2.688,0.721,4.176
		c0,2.208-0.445,4.081-1.332,5.616c-0.889,1.537-2.041,2.82-3.457,3.852c-1.417,1.033-2.988,1.836-4.716,2.412
		c-1.728,0.576-3.433,1.021-5.112,1.332c-1.681,0.313-3.229,0.504-4.644,0.576c-1.416,0.072-2.508,0.108-3.276,0.108
		c0,0.913,0.132,1.812,0.396,2.7c0.263,0.889,0.659,1.668,1.188,2.34c0.528,0.673,1.224,1.224,2.088,1.656
		c0.864,0.432,1.919,0.648,3.168,0.648c1.248,0,2.219-0.204,2.916-0.612c0.695-0.407,1.26-0.864,1.692-1.368
		c0.432-0.504,0.803-0.96,1.116-1.368c0.312-0.407,0.731-0.612,1.26-0.612c0.24,0,0.659,0.061,1.26,0.18
		c0.6,0.121,1.212,0.373,1.836,0.756c0.624,0.385,1.176,0.913,1.656,1.584c0.479,0.673,0.721,1.537,0.721,2.592
		c0,1.393-0.432,2.592-1.296,3.6c-0.864,1.008-1.98,1.825-3.348,2.448c-1.368,0.625-2.892,1.08-4.572,1.368
		C471.236,56.643,469.604,56.787,468.021,56.787z M469.389,25.322c-1.057,0-1.957,0.3-2.7,0.9c-0.745,0.601-1.368,1.357-1.872,2.268
		c-0.504,0.913-0.889,1.92-1.152,3.024c-0.264,1.104-0.468,2.16-0.612,3.168c2.976-0.047,5.387-0.551,7.236-1.512
		c1.847-0.959,2.772-2.328,2.772-4.104c0-0.959-0.3-1.824-0.9-2.592C471.56,25.707,470.636,25.322,469.389,25.322z"/>
	<path fill="#FE5A1D" stroke="#CE2029" stroke-miterlimit="10" d="M487.533,47.21c0-4.32,1.943-7.704,5.832-10.152
		c3.888-2.448,9.623-3.768,17.207-3.96c0.048-0.528,0.084-0.972,0.108-1.332c0.024-0.36,0.036-0.803,0.036-1.332
		c0-1.536-0.288-2.76-0.864-3.672c-0.575-0.911-1.776-1.368-3.6-1.368c-1.009,0-1.825,0.144-2.448,0.432
		c-0.625,0.288-1.129,0.684-1.512,1.188c-0.385,0.504-0.697,1.116-0.936,1.836c-0.241,0.72-0.457,1.512-0.648,2.376
		c-0.098,0.432-0.312,0.708-0.648,0.828c-0.336,0.121-0.863,0.18-1.584,0.18c-4.896,0-7.344-1.847-7.344-5.544
		c0-1.487,0.348-2.904,1.044-4.248c0.695-1.343,1.728-2.508,3.097-3.492c1.367-0.983,3.083-1.764,5.147-2.34
		c2.063-0.576,4.464-0.864,7.2-0.864c5.328,0,9.191,1.104,11.592,3.312c2.399,2.208,3.6,5.328,3.6,9.36
		c0,0.529-0.061,1.476-0.18,2.844c-0.121,1.368-0.265,2.808-0.432,4.32c-0.17,1.512-0.312,2.94-0.433,4.284
		c-0.12,1.345-0.18,2.281-0.18,2.808c0,1.201,0.216,2.052,0.647,2.556c0.433,0.504,0.924,0.853,1.477,1.044
		c0.551,0.192,1.044,0.336,1.477,0.432c0.432,0.097,0.647,0.336,0.647,0.72c0,1.057-0.144,2.137-0.433,3.24
		c-0.287,1.104-0.756,2.113-1.404,3.024c-0.647,0.912-1.536,1.656-2.663,2.232c-1.128,0.576-2.509,0.864-4.14,0.864
		c-2.305,0-4.033-0.553-5.185-1.656s-1.921-2.639-2.304-4.608c-1.152,1.681-2.652,3.145-4.5,4.392
		c-1.849,1.248-4.261,1.872-7.236,1.872c-1.439,0-2.797-0.169-4.068-0.504c-1.271-0.335-2.375-0.887-3.312-1.656
		c-0.937-0.767-1.681-1.764-2.231-2.988C487.809,50.415,487.533,48.938,487.533,47.21z M509.925,39.002
		c-1.249,0-2.473,0.097-3.672,0.288c-1.2,0.192-2.269,0.493-3.204,0.9c-0.936,0.408-1.691,0.948-2.268,1.62
		c-0.576,0.673-0.865,1.488-0.865,2.448c0,1.105,0.348,1.872,1.045,2.304c0.695,0.432,1.451,0.648,2.268,0.648
		c0.768,0,1.535-0.167,2.305-0.504c0.767-0.335,1.451-0.852,2.052-1.548c0.6-0.695,1.116-1.548,1.548-2.556
		C509.564,41.594,509.828,40.395,509.925,39.002z"/>
	<path fill="#FE5A1D" stroke="#CE2029" stroke-miterlimit="10" d="M564.428,50.234c0,0.241-0.12,0.72-0.359,1.44
		c-0.241,0.72-0.625,1.465-1.152,2.232c-0.529,0.769-1.188,1.44-1.98,2.016c-0.791,0.576-1.74,0.864-2.844,0.864
		c-1.296,0-2.58-0.432-3.852-1.296c-1.273-0.864-2.533-2.04-3.78-3.528c-1.249-1.487-2.509-3.251-3.78-5.292
		c-1.271-2.04-2.556-4.259-3.852-6.66c-0.192,2.545-0.385,5.04-0.576,7.488c-0.192,2.448-0.385,4.824-0.576,7.128
		c-0.049,0.576-0.168,0.96-0.359,1.152c-0.193,0.192-0.602,0.288-1.225,0.288H537.5c-1.488,0-2.713-0.155-3.672-0.468
		c-0.961-0.312-1.705-0.756-2.232-1.332c-0.529-0.576-0.9-1.308-1.115-2.196c-0.217-0.888-0.324-1.908-0.324-3.06
		c0-0.576,0.023-1.175,0.072-1.8c0.047-0.624,0.119-1.512,0.215-2.664s0.228-2.664,0.396-4.536c0.168-1.872,0.371-4.343,0.611-7.416
		c0.24-3.071,0.516-6.851,0.828-11.34c0.312-4.488,0.66-9.947,1.045-16.38c0.047-1.055,0.168-1.68,0.359-1.872
		c0.145-0.144,0.527-0.216,1.152-0.216h2.809c1.486,0,2.711,0.168,3.672,0.504c0.959,0.336,1.728,0.792,2.304,1.368
		c0.575,0.576,0.972,1.249,1.188,2.016c0.215,0.769,0.323,1.561,0.323,2.376c0,0.48-0.036,1.285-0.108,2.412
		c-0.072,1.128-0.156,2.497-0.252,4.104c-0.096,1.609-0.229,3.42-0.396,5.436c-0.169,2.016-0.324,4.129-0.468,6.336l11.52-10.512
		c0.432-0.383,0.828-0.648,1.188-0.792c0.361-0.144,0.637-0.216,0.828-0.216c0.528,0,1.104,0.336,1.729,1.008
		c0.623,0.673,1.211,1.453,1.764,2.34c0.552,0.889,1.008,1.8,1.368,2.736s0.54,1.692,0.54,2.268c0,1.393-1.115,2.856-3.348,4.392
		c-2.232,1.537-5.605,3.265-10.116,5.184c2.017,2.256,3.935,4.32,5.76,6.192c1.823,1.872,3.421,3.528,4.788,4.968
		c1.368,1.44,2.459,2.617,3.276,3.528C564.02,49.347,564.428,49.946,564.428,50.234z"/>
	<path fill="#FE5A1D" stroke="#CE2029" stroke-miterlimit="10" d="M574.723,43.25c2.016,0,3.457,0.493,4.32,1.476
		c0.864,0.984,1.296,2.365,1.296,4.14c0,0.72-0.097,1.548-0.288,2.484c-0.192,0.936-0.539,1.8-1.044,2.592
		c-0.504,0.792-1.212,1.465-2.124,2.016s-2.113,0.828-3.6,0.828c-2.209,0-3.697-0.565-4.465-1.692
		c-0.768-1.127-1.151-2.531-1.151-4.212c0-0.959,0.119-1.896,0.36-2.808c0.239-0.911,0.623-1.728,1.152-2.448
		c0.527-0.72,1.247-1.296,2.159-1.728C572.25,43.466,573.379,43.25,574.723,43.25z"/>
	<path fill="#FE5A1D" stroke="#CE2029" stroke-miterlimit="10" d="M605.25,47.21c1.393,0,2.604-0.191,3.637-0.576
		c1.031-0.383,1.932-0.815,2.699-1.296c0.768-0.479,1.416-0.911,1.944-1.296c0.528-0.384,1.008-0.576,1.44-0.576
		c1.104,0,1.656,0.72,1.656,2.16c0,0.336-0.072,0.804-0.217,1.404c-0.145,0.601-0.336,1.224-0.576,1.872s-0.492,1.26-0.756,1.836
		c-0.264,0.576-0.516,1.008-0.756,1.296c-0.24,0.241-0.66,0.625-1.26,1.152c-0.602,0.529-1.404,1.056-2.412,1.584
		c-1.008,0.529-2.186,0.997-3.528,1.404c-1.345,0.407-2.833,0.612-4.464,0.612c-1.824,0-3.708-0.277-5.652-0.828
		c-1.943-0.551-3.707-1.512-5.291-2.88c-1.584-1.368-2.893-3.215-3.924-5.544c-1.033-2.328-1.549-5.243-1.549-8.748
		c0-1.248,0.084-2.675,0.252-4.284c0.168-1.607,0.516-3.264,1.044-4.968c0.528-1.703,1.235-3.384,2.124-5.04
		c0.888-1.656,2.076-3.132,3.564-4.428c1.486-1.296,3.275-2.34,5.363-3.132s4.572-1.188,7.453-1.188
		c2.351,0,4.379,0.276,6.084,0.828c1.703,0.553,3.106,1.296,4.211,2.232c1.104,0.936,1.932,2.028,2.484,3.276
		c0.551,1.249,0.828,2.592,0.828,4.032c0,2.592-0.816,4.5-2.448,5.724s-3.937,1.836-6.911,1.836c-0.721,0-1.213-0.06-1.477-0.18
		c-0.265-0.12-0.396-0.396-0.396-0.828c0-1.152-0.024-2.184-0.072-3.096c-0.048-0.911-0.18-1.68-0.396-2.304
		c-0.216-0.624-0.54-1.104-0.972-1.44c-0.432-0.335-1.057-0.504-1.872-0.504c-1.488,0-2.677,0.48-3.563,1.44
		c-0.89,0.961-1.561,2.124-2.017,3.492c-0.457,1.368-0.745,2.772-0.864,4.212c-0.12,1.44-0.18,2.641-0.18,3.6
		c0,3.409,0.54,5.785,1.62,7.128C601.182,46.539,602.898,47.21,605.25,47.21z"/>
	<path fill="#FE5A1D" stroke="#CE2029" stroke-miterlimit="10" d="M639.811,56.787c-3.312,0-6.061-0.468-8.244-1.404
		c-2.186-0.936-3.924-2.22-5.221-3.852c-1.296-1.631-2.208-3.539-2.736-5.724c-0.528-2.184-0.791-4.524-0.791-7.02
		c0-2.88,0.348-5.7,1.043-8.46c0.695-2.759,1.884-5.22,3.564-7.38c1.68-2.16,3.899-3.899,6.66-5.22
		c2.76-1.32,6.203-1.98,10.332-1.98c6.048,0,10.379,1.476,12.996,4.428c2.615,2.952,3.924,7.092,3.924,12.42
		c0,1.489-0.107,3.132-0.324,4.932c-0.216,1.8-0.624,3.589-1.224,5.364c-0.601,1.776-1.417,3.504-2.448,5.184
		c-1.033,1.681-2.34,3.168-3.924,4.464c-1.584,1.296-3.492,2.329-5.725,3.096C645.462,56.402,642.834,56.787,639.811,56.787z
		 M643.193,25.322c-1.824,0-3.275,0.468-4.355,1.404s-1.896,2.064-2.447,3.384c-0.553,1.321-0.913,2.712-1.08,4.176
		c-0.17,1.464-0.252,2.7-0.252,3.708c0,3.168,0.504,5.497,1.512,6.984c1.008,1.488,2.447,2.232,4.32,2.232
		c1.68,0,3.06-0.528,4.139-1.584c1.08-1.055,1.92-2.328,2.521-3.816c0.6-1.487,1.009-3.048,1.224-4.68
		c0.217-1.631,0.324-2.999,0.324-4.104c0-2.399-0.443-4.284-1.332-5.652C646.877,26.006,645.354,25.322,643.193,25.322z"/>
	<path fill="#FE5A1D" stroke="#CE2029" stroke-miterlimit="10" d="M679.193,43.106c-0.145,2.208-0.312,4.309-0.504,6.3
		c-0.193,1.993-0.337,3.733-0.432,5.22c-0.049,0.576-0.17,0.96-0.361,1.152c-0.191,0.192-0.6,0.288-1.223,0.288h-2.593
		c-1.488,0-2.7-0.155-3.636-0.468c-0.936-0.312-1.681-0.756-2.232-1.332c-0.553-0.576-0.936-1.284-1.152-2.124
		c-0.215-0.839-0.323-1.812-0.323-2.916c0-0.72,0.036-1.739,0.108-3.06c0.071-1.32,0.203-3.144,0.396-5.472
		c0.191-2.328,0.419-5.28,0.685-8.856c0.263-3.575,0.586-8.003,0.971-13.284c0.048-1.055,0.168-1.679,0.361-1.872
		c0.144-0.144,0.527-0.216,1.151-0.216h2.808c1.44,0,2.616,0.169,3.528,0.504c0.911,0.336,1.656,0.769,2.231,1.296
		c0.576,0.528,0.984,1.152,1.225,1.872c0.24,0.72,0.384,1.465,0.432,2.232c1.393-2.592,2.977-4.344,4.752-5.256
		c1.775-0.911,3.863-1.368,6.264-1.368c1.297,0,2.545,0.12,3.744,0.36c1.199,0.241,2.279,0.648,3.24,1.224
		c0.96,0.576,1.775,1.332,2.448,2.268c0.672,0.936,1.152,2.124,1.44,3.564c1.486-2.783,3.119-4.716,4.896-5.796
		c1.775-1.08,4.007-1.62,6.696-1.62c1.487,0,2.916,0.156,4.283,0.468c1.369,0.313,2.557,0.853,3.564,1.62
		c1.008,0.768,1.812,1.812,2.412,3.132c0.6,1.321,0.9,2.964,0.9,4.932c0,1.488-0.072,3.312-0.217,5.472
		c-0.144,2.16-0.312,4.5-0.504,7.02s-0.408,5.112-0.647,7.776c-0.241,2.664-0.433,5.22-0.576,7.668
		c-0.048,0.529-0.097,0.936-0.144,1.224c-0.049,0.288-0.133,0.504-0.252,0.648c-0.121,0.144-0.301,0.241-0.541,0.288
		c-0.24,0.048-0.575,0.072-1.008,0.072h-2.304c-1.536,0-2.784-0.144-3.744-0.432s-1.704-0.695-2.231-1.224
		c-0.529-0.528-0.9-1.188-1.116-1.98s-0.324-1.692-0.324-2.7c0-0.624,0.036-1.512,0.108-2.664s0.168-2.399,0.287-3.744
		c0.119-1.343,0.24-2.736,0.361-4.176c0.119-1.44,0.238-2.772,0.359-3.996c0.119-1.224,0.216-2.292,0.288-3.204
		c0.071-0.911,0.108-1.512,0.108-1.8c0-1.248-0.252-2.352-0.756-3.312c-0.505-0.959-1.477-1.44-2.916-1.44
		c-1.25,0-2.33,0.408-3.24,1.224c-0.913,0.817-1.682,1.944-2.305,3.384c-0.624,1.44-1.128,3.145-1.512,5.112
		c-0.385,1.969-0.648,4.104-0.792,6.408c-0.097,1.488-0.216,3.193-0.36,5.112c-0.144,1.92-0.312,4.32-0.504,7.2
		c-0.049,0.529-0.097,0.936-0.145,1.224c-0.048,0.288-0.132,0.504-0.252,0.648c-0.119,0.144-0.3,0.241-0.539,0.288
		c-0.241,0.048-0.576,0.072-1.008,0.072h-2.305c-1.537,0-2.784-0.144-3.744-0.432c-0.961-0.288-1.704-0.695-2.231-1.224
		c-0.528-0.528-0.9-1.188-1.116-1.98s-0.324-1.692-0.324-2.7c0-0.959,0.084-2.364,0.252-4.212c0.168-1.847,0.336-3.768,0.504-5.76
		c0.168-1.991,0.336-3.888,0.504-5.688c0.168-1.8,0.252-3.107,0.252-3.924c0-1.248-0.252-2.352-0.756-3.312
		c-0.504-0.959-1.476-1.44-2.916-1.44c-1.295,0-2.4,0.48-3.312,1.44c-0.913,0.96-1.669,2.244-2.269,3.852
		c-0.6,1.608-1.08,3.492-1.439,5.652S679.337,40.755,679.193,43.106z"/>
</g>
<g>
</g>
<g>
</g>
<g>
</g>
<g>
</g>
<g>
</g>
<g>
</g>
<g>
</g>
<g>
</g>
<g>
</g>
<g>
</g>
<g>
</g>
<g>
</g>
<g>
</g>
<g>
</g>
<g>
</g>
</svg>
