<?xml version="1.0" encoding="utf-8"?>
<!-- Generator: Adobe Illustrator 16.0.0, SVG Export Plug-In . SVG Version: 6.00 Build 0)  -->
<!DOCTYPE svg PUBLIC "-//W3C//DTD SVG 1.1//EN" "http://www.w3.org/Graphics/SVG/1.1/DTD/svg11.dtd">
<svg version="1.1" id="Layer_1" xmlns="http://www.w3.org/2000/svg" xmlns:xlink="http://www.w3.org/1999/xlink" x="0px" y="0px"
	 width="739px" height="61px" viewBox="0 0 739 61" enable-background="new 0 0 739 61" xml:space="preserve">
<g>
	<path fill="#CE2029" d="M13.932,36.411v19.296H6.984V4.119h15.228c3.264,0,6.102,0.378,8.514,1.134s4.41,1.831,5.994,3.222
		c1.584,1.392,2.766,3.072,3.546,5.04c0.779,1.968,1.17,4.164,1.17,6.588c0,2.4-0.42,4.596-1.26,6.588
		c-0.84,1.993-2.07,3.708-3.69,5.148c-1.62,1.44-3.63,2.562-6.03,3.366c-2.4,0.804-5.148,1.206-8.244,1.206H13.932z M13.932,30.867
		h8.28c1.992,0,3.75-0.264,5.274-0.792c1.524-0.528,2.802-1.266,3.834-2.214c1.032-0.948,1.812-2.082,2.34-3.402
		c0.527-1.319,0.792-2.772,0.792-4.356c0-3.288-1.014-5.855-3.042-7.704c-2.028-1.848-5.094-2.772-9.198-2.772h-8.28V30.867z"/>
	<path fill="#CE2029" d="M49.247,55.707V19.239h3.672c0.696,0,1.175,0.132,1.44,0.396c0.264,0.264,0.444,0.72,0.54,1.368
		l0.432,5.688c1.248-2.543,2.79-4.53,4.626-5.958c1.836-1.428,3.99-2.142,6.462-2.142c1.008,0,1.919,0.114,2.736,0.342
		c0.815,0.229,1.572,0.546,2.268,0.954l-0.828,4.788c-0.168,0.601-0.54,0.9-1.116,0.9c-0.336,0-0.852-0.114-1.548-0.342
		c-0.696-0.228-1.668-0.342-2.916-0.342c-2.232,0-4.098,0.648-5.598,1.944s-2.754,3.181-3.762,5.652v23.22H49.247z"/>
	<path fill="#CE2029" d="M93.023,18.663c2.664,0,5.07,0.444,7.218,1.332c2.148,0.888,3.972,2.148,5.472,3.78
		c1.5,1.632,2.651,3.606,3.456,5.922c0.804,2.316,1.206,4.902,1.206,7.758c0,2.88-0.402,5.472-1.206,7.776
		c-0.805,2.304-1.957,4.272-3.456,5.904c-1.5,1.632-3.324,2.886-5.472,3.762s-4.554,1.314-7.218,1.314s-5.07-0.438-7.218-1.314
		s-3.978-2.129-5.49-3.762c-1.512-1.632-2.676-3.6-3.492-5.904c-0.816-2.304-1.224-4.896-1.224-7.776
		c0-2.856,0.408-5.442,1.224-7.758s1.98-4.29,3.492-5.922c1.512-1.632,3.342-2.892,5.49-3.78
		C87.953,19.107,90.359,18.663,93.023,18.663z M93.023,51.207c3.6,0,6.288-1.206,8.064-3.618c1.776-2.412,2.664-5.778,2.664-10.098
		c0-4.344-0.888-7.728-2.664-10.152c-1.776-2.424-4.464-3.636-8.064-3.636c-1.824,0-3.408,0.312-4.752,0.936
		c-1.345,0.624-2.466,1.524-3.366,2.7c-0.9,1.176-1.572,2.623-2.016,4.338c-0.444,1.716-0.666,3.654-0.666,5.814
		c0,2.16,0.222,4.092,0.666,5.796c0.444,1.704,1.116,3.138,2.016,4.302c0.9,1.165,2.021,2.059,3.366,2.682
		C89.615,50.896,91.199,51.207,93.023,51.207z"/>
	<path fill="#CE2029" d="M143.963,55.707c-0.912,0-1.488-0.444-1.728-1.332l-0.576-4.428c-1.561,1.896-3.342,3.414-5.346,4.554
		c-2.004,1.14-4.302,1.71-6.894,1.71c-2.088,0-3.984-0.402-5.688-1.206c-1.704-0.804-3.156-1.985-4.356-3.546
		c-1.2-1.56-2.124-3.504-2.772-5.832c-0.648-2.328-0.972-5.004-0.972-8.028c0-2.688,0.36-5.19,1.08-7.506
		c0.72-2.316,1.758-4.326,3.114-6.03c1.355-1.704,3.006-3.042,4.95-4.014c1.944-0.972,4.152-1.458,6.624-1.458
		c2.232,0,4.14,0.378,5.724,1.134s3,1.818,4.248,3.186V2.679h6.408v53.028H143.963z M131.543,51.027c2.088,0,3.918-0.479,5.49-1.44
		c1.571-0.959,3.018-2.316,4.338-4.068v-17.64c-1.176-1.584-2.466-2.694-3.87-3.33c-1.404-0.635-2.958-0.954-4.662-0.954
		c-3.408,0-6.024,1.212-7.848,3.636c-1.824,2.424-2.736,5.88-2.736,10.368c0,2.376,0.204,4.41,0.612,6.102
		c0.408,1.692,1.008,3.084,1.8,4.176c0.792,1.092,1.764,1.89,2.916,2.394S130.055,51.027,131.543,51.027z"/>
	<path fill="#CE2029" d="M164.086,19.239v23.256c0,2.76,0.636,4.896,1.908,6.408c1.272,1.512,3.191,2.268,5.76,2.268
		c1.872,0,3.636-0.444,5.292-1.332c1.656-0.888,3.18-2.124,4.572-3.708V19.239h6.408v36.468h-3.816
		c-0.912,0-1.488-0.444-1.728-1.332l-0.504-3.924c-1.584,1.752-3.36,3.162-5.328,4.23c-1.968,1.067-4.224,1.602-6.768,1.602
		c-1.993,0-3.75-0.331-5.274-0.99s-2.802-1.589-3.834-2.79c-1.032-1.2-1.806-2.651-2.322-4.356
		c-0.517-1.704-0.774-3.587-0.774-5.652V19.239H164.086z"/>
	<path fill="#CE2029" d="M223.451,25.719c-0.192,0.264-0.384,0.468-0.576,0.612c-0.192,0.144-0.468,0.216-0.828,0.216
		s-0.75-0.149-1.17-0.45c-0.42-0.3-0.954-0.63-1.602-0.99s-1.435-0.689-2.358-0.99c-0.924-0.3-2.058-0.45-3.402-0.45
		c-1.776,0-3.348,0.318-4.716,0.954c-1.368,0.636-2.514,1.554-3.438,2.754c-0.924,1.2-1.62,2.652-2.088,4.356
		c-0.468,1.705-0.702,3.612-0.702,5.724c0,2.208,0.252,4.17,0.756,5.886c0.504,1.716,1.212,3.156,2.124,4.32s2.022,2.052,3.33,2.664
		c1.308,0.612,2.778,0.918,4.41,0.918c1.56,0,2.844-0.186,3.852-0.558c1.008-0.372,1.848-0.786,2.52-1.242
		c0.671-0.456,1.224-0.87,1.656-1.242s0.864-0.558,1.296-0.558c0.552,0,0.96,0.204,1.224,0.612l1.8,2.34
		c-1.584,1.944-3.564,3.366-5.94,4.266c-2.376,0.9-4.884,1.35-7.524,1.35c-2.28,0-4.398-0.42-6.354-1.26s-3.654-2.058-5.094-3.654
		c-1.44-1.596-2.574-3.558-3.402-5.886c-0.828-2.328-1.242-4.98-1.242-7.956c0-2.712,0.378-5.22,1.134-7.524
		c0.756-2.304,1.86-4.29,3.312-5.958c1.452-1.668,3.246-2.97,5.382-3.906c2.136-0.936,4.583-1.404,7.344-1.404
		c2.543,0,4.8,0.414,6.768,1.242c1.968,0.828,3.708,1.998,5.22,3.51L223.451,25.719z"/>
	<path fill="#CE2029" d="M243.25,56.283c-2.88,0-5.094-0.804-6.642-2.412s-2.322-3.924-2.322-6.948v-22.32h-4.392
		c-0.384,0-0.708-0.114-0.972-0.342c-0.264-0.228-0.396-0.582-0.396-1.062v-2.556l5.976-0.756l1.476-11.268
		c0.048-0.36,0.204-0.654,0.468-0.882c0.264-0.228,0.6-0.342,1.008-0.342h3.24v12.564h10.44v4.644h-10.44v21.888
		c0,1.536,0.372,2.676,1.116,3.42c0.744,0.744,1.704,1.116,2.88,1.116c0.671,0,1.254-0.09,1.746-0.27
		c0.492-0.18,0.918-0.378,1.278-0.594s0.666-0.414,0.918-0.594c0.252-0.18,0.474-0.27,0.666-0.27c0.336,0,0.636,0.205,0.9,0.612
		l1.872,3.06c-1.104,1.032-2.436,1.842-3.996,2.43S244.906,56.283,243.25,56.283z"/>
	<path fill="#CE2029" d="M267.622,7.791c0,0.625-0.126,1.206-0.378,1.746c-0.252,0.54-0.588,1.021-1.008,1.44
		c-0.42,0.42-0.906,0.75-1.458,0.99c-0.552,0.24-1.14,0.36-1.764,0.36s-1.206-0.12-1.746-0.36c-0.54-0.239-1.021-0.569-1.44-0.99
		c-0.42-0.419-0.75-0.9-0.99-1.44c-0.24-0.54-0.36-1.122-0.36-1.746c0-0.624,0.12-1.218,0.36-1.782
		c0.24-0.563,0.57-1.056,0.99-1.476s0.9-0.75,1.44-0.99c0.54-0.24,1.122-0.36,1.746-0.36s1.212,0.12,1.764,0.36
		c0.552,0.24,1.038,0.57,1.458,0.99c0.419,0.42,0.756,0.912,1.008,1.476C267.496,6.573,267.622,7.167,267.622,7.791z
		 M266.181,19.239v36.468h-6.408V19.239H266.181z"/>
	<path fill="#CE2029" d="M272.877,19.239h5.256c0.504,0,0.924,0.132,1.26,0.396c0.336,0.264,0.576,0.576,0.72,0.936l9.252,23.472
		c0.335,0.864,0.6,1.728,0.792,2.592c0.191,0.864,0.372,1.716,0.54,2.556c0.192-0.84,0.396-1.692,0.612-2.556
		c0.216-0.864,0.492-1.728,0.828-2.592l9.36-23.472c0.144-0.383,0.378-0.702,0.702-0.954c0.324-0.252,0.726-0.378,1.206-0.378h5.004
		l-14.868,36.468h-5.796L272.877,19.239z"/>
	<path fill="#CE2029" d="M327.85,18.663c2.184,0,4.2,0.366,6.048,1.098c1.848,0.732,3.443,1.788,4.788,3.168
		c1.344,1.38,2.394,3.084,3.15,5.112c0.756,2.028,1.134,4.338,1.134,6.93c0,1.008-0.108,1.68-0.324,2.016
		c-0.216,0.336-0.624,0.504-1.224,0.504h-24.264c0.048,2.304,0.36,4.308,0.936,6.012c0.576,1.705,1.368,3.126,2.376,4.266
		c1.008,1.14,2.208,1.992,3.6,2.556c1.392,0.564,2.952,0.846,4.68,0.846c1.608,0,2.994-0.186,4.158-0.558
		c1.164-0.372,2.166-0.774,3.006-1.206c0.84-0.432,1.542-0.834,2.106-1.206s1.05-0.558,1.458-0.558c0.528,0,0.936,0.204,1.224,0.612
		l1.8,2.34c-0.792,0.96-1.741,1.794-2.844,2.502c-1.104,0.708-2.286,1.29-3.546,1.746c-1.26,0.456-2.562,0.798-3.906,1.026
		c-1.344,0.228-2.676,0.342-3.996,0.342c-2.52,0-4.842-0.426-6.966-1.278s-3.96-2.1-5.508-3.744
		c-1.548-1.644-2.754-3.678-3.618-6.102c-0.864-2.424-1.296-5.208-1.296-8.352c0-2.543,0.39-4.919,1.17-7.128
		c0.78-2.208,1.902-4.122,3.366-5.742c1.463-1.62,3.251-2.892,5.364-3.816C322.833,19.125,325.209,18.663,327.85,18.663z
		 M327.994,23.379c-3.096,0-5.532,0.895-7.308,2.682c-1.776,1.788-2.88,4.266-3.312,7.434h19.836c0-1.488-0.204-2.85-0.612-4.086
		c-0.408-1.236-1.008-2.304-1.8-3.204s-1.758-1.596-2.898-2.088C330.76,23.625,329.458,23.379,327.994,23.379z"/>
	<path fill="#CE2029" d="M366.044,55.707V4.119h16.452c3.168,0,5.898,0.312,8.19,0.936s4.176,1.512,5.652,2.664
		c1.476,1.152,2.568,2.562,3.276,4.23c0.708,1.668,1.062,3.546,1.062,5.634c0,1.272-0.198,2.497-0.594,3.672
		c-0.396,1.176-0.996,2.268-1.8,3.276c-0.804,1.008-1.812,1.908-3.024,2.7c-1.212,0.792-2.634,1.44-4.266,1.944
		c3.768,0.745,6.612,2.101,8.532,4.068c1.919,1.968,2.88,4.56,2.88,7.776c0,2.184-0.402,4.176-1.206,5.976
		c-0.804,1.8-1.98,3.348-3.528,4.644c-1.548,1.296-3.444,2.298-5.688,3.006c-2.245,0.708-4.806,1.062-7.686,1.062H366.044z
		 M373.028,27.231h9.216c1.968,0,3.672-0.216,5.112-0.648s2.633-1.032,3.582-1.8c0.948-0.768,1.649-1.698,2.106-2.79
		c0.456-1.092,0.684-2.286,0.684-3.582c0-3.024-0.913-5.244-2.736-6.66c-1.824-1.416-4.656-2.124-8.496-2.124h-9.468V27.231z
		 M373.028,32.199v17.964h11.16c1.992,0,3.702-0.228,5.13-0.684c1.428-0.456,2.604-1.098,3.528-1.926
		c0.924-0.828,1.602-1.812,2.034-2.952c0.432-1.14,0.648-2.394,0.648-3.762c0-2.664-0.942-4.77-2.826-6.318
		c-1.884-1.548-4.734-2.322-8.55-2.322H373.028z"/>
	<path fill="#CE2029" d="M411.619,55.707V19.239h3.672c0.696,0,1.175,0.132,1.44,0.396c0.264,0.264,0.444,0.72,0.54,1.368
		l0.432,5.688c1.248-2.543,2.79-4.53,4.626-5.958c1.836-1.428,3.99-2.142,6.462-2.142c1.008,0,1.92,0.114,2.736,0.342
		c0.815,0.229,1.571,0.546,2.268,0.954l-0.828,4.788c-0.168,0.601-0.539,0.9-1.115,0.9c-0.337,0-0.853-0.114-1.548-0.342
		c-0.697-0.228-1.669-0.342-2.916-0.342c-2.232,0-4.099,0.648-5.599,1.944s-2.754,3.181-3.762,5.652v23.22H411.619z"/>
	<path fill="#CE2029" d="M455.071,18.663c2.184,0,4.199,0.366,6.048,1.098c1.848,0.732,3.443,1.788,4.788,3.168
		c1.344,1.38,2.394,3.084,3.149,5.112c0.756,2.028,1.134,4.338,1.134,6.93c0,1.008-0.107,1.68-0.323,2.016
		c-0.216,0.336-0.625,0.504-1.225,0.504h-24.264c0.048,2.304,0.36,4.308,0.936,6.012c0.576,1.705,1.368,3.126,2.376,4.266
		c1.009,1.14,2.208,1.992,3.601,2.556c1.392,0.564,2.952,0.846,4.68,0.846c1.607,0,2.994-0.186,4.158-0.558
		c1.164-0.372,2.166-0.774,3.006-1.206c0.84-0.432,1.542-0.834,2.106-1.206c0.563-0.372,1.05-0.558,1.458-0.558
		c0.527,0,0.936,0.204,1.224,0.612l1.8,2.34c-0.792,0.96-1.74,1.794-2.844,2.502c-1.104,0.708-2.286,1.29-3.546,1.746
		s-2.562,0.798-3.906,1.026c-1.344,0.228-2.676,0.342-3.996,0.342c-2.52,0-4.842-0.426-6.966-1.278s-3.96-2.1-5.508-3.744
		c-1.548-1.644-2.754-3.678-3.618-6.102c-0.864-2.424-1.296-5.208-1.296-8.352c0-2.543,0.39-4.919,1.17-7.128
		c0.779-2.208,1.901-4.122,3.366-5.742c1.464-1.62,3.252-2.892,5.364-3.816C450.055,19.125,452.431,18.663,455.071,18.663z
		 M455.215,23.379c-3.096,0-5.532,0.895-7.308,2.682c-1.776,1.788-2.88,4.266-3.312,7.434h19.836c0-1.488-0.204-2.85-0.611-4.086
		c-0.409-1.236-1.009-2.304-1.801-3.204s-1.758-1.596-2.897-2.088C457.98,23.625,456.679,23.379,455.215,23.379z"/>
	<path fill="#CE2029" d="M505.146,55.707h-2.844c-0.625,0-1.129-0.096-1.513-0.288c-0.384-0.192-0.636-0.6-0.756-1.224l-0.72-3.384
		c-0.96,0.864-1.896,1.638-2.808,2.322c-0.913,0.684-1.872,1.26-2.881,1.728c-1.008,0.468-2.082,0.823-3.222,1.062
		c-1.14,0.24-2.406,0.36-3.798,0.36c-1.416,0-2.742-0.199-3.978-0.596c-1.237-0.397-2.311-0.994-3.223-1.789
		c-0.912-0.794-1.638-1.8-2.178-3.017c-0.54-1.216-0.811-2.655-0.811-4.316c0-1.444,0.396-2.835,1.188-4.172
		c0.792-1.336,2.07-2.522,3.834-3.558s4.073-1.884,6.93-2.547c2.856-0.662,6.348-0.994,10.477-0.994v-2.862
		c0-2.85-0.606-5.004-1.818-6.466s-3.006-2.192-5.382-2.192c-1.561,0-2.874,0.198-3.942,0.594c-1.067,0.396-1.992,0.84-2.771,1.332
		c-0.78,0.492-1.452,0.936-2.017,1.332c-0.563,0.396-1.122,0.594-1.674,0.594c-0.432,0-0.81-0.114-1.134-0.342
		s-0.582-0.51-0.774-0.846l-1.151-2.052c2.016-1.944,4.188-3.396,6.516-4.356s4.908-1.44,7.74-1.44c2.04,0,3.852,0.336,5.436,1.008
		s2.916,1.608,3.996,2.808s1.896,2.652,2.448,4.356c0.552,1.704,0.828,3.576,0.828,5.616V55.707z M488.515,51.783
		c1.128,0,2.16-0.114,3.096-0.342c0.937-0.228,1.818-0.552,2.646-0.972c0.827-0.42,1.619-0.93,2.376-1.53
		c0.756-0.6,1.493-1.284,2.214-2.052v-7.524c-2.952,0-5.46,0.188-7.524,0.562c-2.064,0.375-3.744,0.864-5.04,1.466
		c-1.296,0.604-2.238,1.316-2.826,2.137c-0.588,0.821-0.882,1.738-0.882,2.751c0,0.966,0.156,1.799,0.468,2.499
		c0.312,0.7,0.732,1.273,1.261,1.72c0.527,0.447,1.151,0.773,1.872,0.978C486.895,51.681,487.674,51.783,488.515,51.783z"/>
	<path fill="#CE2029" d="M521.525,2.679v31.212h1.656c0.479,0,0.876-0.066,1.188-0.198c0.312-0.131,0.66-0.401,1.044-0.81
		l11.521-12.348c0.359-0.384,0.72-0.696,1.08-0.936c0.359-0.24,0.84-0.36,1.439-0.36h5.832l-13.428,14.292
		c-0.336,0.408-0.666,0.768-0.99,1.08c-0.324,0.312-0.69,0.588-1.098,0.828c0.432,0.288,0.821,0.618,1.17,0.99
		c0.348,0.372,0.678,0.798,0.99,1.278l14.256,18h-5.76c-0.528,0-0.979-0.102-1.351-0.306c-0.372-0.204-0.726-0.522-1.062-0.954
		l-11.988-14.94c-0.36-0.504-0.72-0.833-1.08-0.99c-0.36-0.156-0.9-0.234-1.62-0.234h-1.8v17.424h-6.444V2.679H521.525z"/>
	<path fill="#CE2029" d="M566.561,30.147l27.864-14.436v4.572c0,0.408-0.097,0.762-0.288,1.062c-0.192,0.3-0.528,0.57-1.008,0.81
		l-16.164,8.208c-0.48,0.265-0.99,0.486-1.53,0.666c-0.54,0.18-1.11,0.342-1.71,0.486c0.6,0.12,1.17,0.276,1.71,0.468
		c0.54,0.192,1.05,0.409,1.53,0.648l16.164,8.172c0.479,0.24,0.815,0.516,1.008,0.828c0.191,0.312,0.288,0.661,0.288,1.044v4.608
		l-27.864-14.472V30.147z"/>
	<path fill="#CE2029" d="M608.463,55.707V2.679h6.444v21.816c1.512-1.752,3.246-3.162,5.202-4.23s4.193-1.602,6.714-1.602
		c2.111,0,4.02,0.396,5.724,1.188s3.156,1.974,4.356,3.546c1.199,1.572,2.124,3.516,2.771,5.832c0.648,2.316,0.973,4.986,0.973,8.01
		c0,2.688-0.36,5.19-1.08,7.506c-0.72,2.316-1.759,4.32-3.114,6.012c-1.356,1.692-3.012,3.024-4.968,3.996
		c-1.956,0.972-4.158,1.458-6.606,1.458c-2.353,0-4.35-0.456-5.994-1.368c-1.644-0.912-3.077-2.184-4.302-3.816l-0.324,3.312
		c-0.192,0.913-0.744,1.368-1.655,1.368H608.463z M624.735,23.775c-2.088,0-3.919,0.48-5.49,1.44
		c-1.572,0.96-3.019,2.316-4.338,4.068v17.64c1.152,1.584,2.43,2.7,3.834,3.348s2.97,0.972,4.698,0.972
		c3.407,0,6.023-1.212,7.848-3.636c1.823-2.424,2.736-5.88,2.736-10.368c0-2.376-0.211-4.416-0.63-6.12
		c-0.421-1.704-1.026-3.102-1.818-4.194c-0.792-1.092-1.764-1.89-2.916-2.394C627.507,24.027,626.199,23.775,624.735,23.775z"/>
	<path fill="#CE2029" d="M648.494,55.707V19.239h3.672c0.696,0,1.176,0.132,1.44,0.396c0.264,0.264,0.443,0.72,0.54,1.368
		l0.432,5.688c1.248-2.543,2.79-4.53,4.626-5.958c1.836-1.428,3.99-2.142,6.462-2.142c1.008,0,1.92,0.114,2.736,0.342
		c0.815,0.229,1.571,0.546,2.268,0.954l-0.828,4.788c-0.168,0.601-0.539,0.9-1.115,0.9c-0.337,0-0.853-0.114-1.548-0.342
		c-0.697-0.228-1.669-0.342-2.916-0.342c-2.232,0-4.099,0.648-5.599,1.944s-2.754,3.181-3.762,5.652v23.22H648.494z"/>
	<path fill="#CE2029" d="M678.051,56.463c-0.336,0.84-0.834,1.464-1.494,1.872c-0.66,0.408-1.338,0.612-2.034,0.612h-2.699
		l21.636-53.892c0.312-0.768,0.756-1.356,1.332-1.764c0.576-0.408,1.26-0.612,2.052-0.612h2.7L678.051,56.463z"/>
	<path fill="#CE2029" d="M707.678,47.283v-4.608c0-0.383,0.096-0.731,0.288-1.044c0.191-0.312,0.527-0.587,1.008-0.828l16.164-8.172
		c0.479-0.239,0.978-0.456,1.494-0.648c0.516-0.192,1.073-0.348,1.674-0.468c-0.601-0.144-1.158-0.306-1.674-0.486
		c-0.517-0.18-1.015-0.401-1.494-0.666l-16.164-8.208c-0.48-0.24-0.816-0.51-1.008-0.81c-0.192-0.3-0.288-0.654-0.288-1.062v-4.572
		l27.828,14.436v2.664L707.678,47.283z"/>
</g>
<g>
</g>
<g>
</g>
<g>
</g>
<g>
</g>
<g>
</g>
<g>
</g>
<g>
</g>
<g>
</g>
<g>
</g>
<g>
</g>
<g>
</g>
<g>
</g>
<g>
</g>
<g>
</g>
<g>
</g>
</svg>
