<?xml version="1.0" encoding="utf-8"?>
<!-- Generator: Adobe Illustrator 16.0.0, SVG Export Plug-In . SVG Version: 6.00 Build 0)  -->
<!DOCTYPE svg PUBLIC "-//W3C//DTD SVG 1.1//EN" "http://www.w3.org/Graphics/SVG/1.1/DTD/svg11.dtd">
<svg version="1.1" id="Layer_1" xmlns="http://www.w3.org/2000/svg" xmlns:xlink="http://www.w3.org/1999/xlink" x="0px" y="0px"
	 width="146.743px" height="169.519px" viewBox="0 0 146.743 169.519" enable-background="new 0 0 146.743 169.519"
	 xml:space="preserve">
<g>
	<g>
		<path fill="#FE5A1D" d="M140.788,105.087c0,29.936-57.451,54.768-59.898,55.811c-2.852,1.213-5.143,2.201-6.16,2.646
			c-0.143,0.062-0.248,0.189-0.283,0.338l-1.312,0.02c-0.035-0.156-0.141-0.287-0.287-0.352c-0.99-0.434-3.23-1.398-6.18-2.652
			c-2.445-1.043-59.898-25.865-59.898-55.811V15.048c0-4.363,3.551-7.912,7.918-7.912h118.186c4.365,0,7.916,3.549,7.916,7.912
			V105.087z"/>
		<g>
			<path fill="#FE5A1D" d="M136.31,1.519H11.245c-5.201,0-9.432,4.23-9.432,9.43v95.277c0,32.379,61.414,58.916,64.027,60.031
				c2.84,1.207,5.057,2.162,6.221,2.666v0.078c0.006,0.289,0.24,0.518,0.529,0.518h1.096c0.006,0,0.01,0,0.016,0l1.309-0.031
				c0.287-0.006,0.516-0.24,0.516-0.527v-0.047c1.191-0.518,3.443-1.488,6.193-2.656c2.613-1.115,64.023-27.664,64.023-60.031
				V10.948C145.743,5.749,141.513,1.519,136.31,1.519z M144.688,106.226c0,31.678-60.795,57.957-63.381,59.059
				c-3.021,1.285-5.443,2.33-6.521,2.801c-0.152,0.066-0.262,0.201-0.299,0.359l-1.393,0.018c-0.033-0.162-0.146-0.301-0.303-0.371
				c-1.047-0.457-3.418-1.479-6.539-2.807c-2.588-1.102-63.383-27.369-63.383-59.059V10.948c0-4.617,3.758-8.373,8.375-8.373H136.31
				c4.623,0,8.379,3.756,8.379,8.373V106.226z"/>
		</g>
	</g>
	<path fill="#FFFFFF" d="M41.399,83.819h64.125c3.764,0,6.818-3.047,6.818-6.812V30.214c0-3.766-3.055-6.818-6.818-6.818
		l-64.125-0.002c-3.764,0.002-6.812,3.055-6.82,6.82v46.793C34.587,80.772,37.636,83.819,41.399,83.819z M39.554,30.214
		c0-1.021,0.824-1.844,1.846-1.844h64.125c1.02,0,1.846,0.822,1.846,1.844v46.793c0,1.021-0.826,1.844-1.846,1.844H41.399
		c-1.021,0-1.846-0.822-1.846-1.844V30.214z M108.718,86.157H39.015c-2.342,0-4.254,1.906-4.254,4.262
		c0,2.346,1.912,4.252,4.254,4.252h69.703c2.352,0,4.26-1.906,4.26-4.252C112.978,88.063,111.069,86.157,108.718,86.157z
		 M41.304,92.298c-1.039,0-1.875-0.836-1.875-1.871c0-1.029,0.836-1.863,1.875-1.863c1.027,0,1.865,0.834,1.865,1.863
		C43.169,91.462,42.331,92.298,41.304,92.298z M47.337,92.298c-1.037,0-1.869-0.836-1.869-1.871c0-1.029,0.832-1.863,1.869-1.863
		c1.031,0,1.869,0.834,1.869,1.863C49.206,91.462,48.368,92.298,47.337,92.298z"/>
	<g>
		<g>
			<path fill-rule="evenodd" clip-rule="evenodd" fill="#FFFFFF" d="M125.386,111.157c0,0.355-0.219,0.645-0.49,0.645H93.22
				c-0.27,0-0.49-0.289-0.49-0.645l0,0c0-0.355,0.221-0.643,0.49-0.643h31.676C125.167,110.515,125.386,110.802,125.386,111.157
				L125.386,111.157z"/>
		</g>
		<g>
			<path fill-rule="evenodd" clip-rule="evenodd" fill="#FFFFFF" d="M22.171,111.157c0,0.355,0.221,0.645,0.49,0.645h31.676
				c0.271,0,0.49-0.289,0.49-0.645l0,0c0-0.355-0.219-0.643-0.49-0.643H22.661C22.392,110.515,22.171,110.802,22.171,111.157
				L22.171,111.157z"/>
		</g>
	</g>
	<g id="text_37_">
		<g>
			<path fill="#FFFFFF" d="M65.659,121.508c-0.027,0.49-0.056,1.037-0.056,1.863v3.936c0,1.555-0.309,2.507-0.967,3.096
				c-0.658,0.616-1.61,0.812-2.465,0.812c-0.812,0-1.709-0.196-2.256-0.561l0.309-0.938c0.448,0.28,1.148,0.532,1.989,0.532
				c1.261,0,2.185-0.658,2.185-2.367v-0.756h-0.027c-0.378,0.63-1.106,1.135-2.157,1.135c-1.681,0-2.886-1.429-2.886-3.306
				c0-2.297,1.499-3.6,3.054-3.6c1.177,0,1.821,0.616,2.115,1.176h0.028l0.056-1.022H65.659z M64.385,124.184
				c0-0.21-0.014-0.393-0.07-0.561c-0.224-0.714-0.826-1.303-1.723-1.303c-1.177,0-2.017,0.995-2.017,2.563
				c0,1.331,0.672,2.438,2.003,2.438c0.756,0,1.442-0.477,1.709-1.261c0.069-0.21,0.098-0.448,0.098-0.659V124.184z"/>
			<path fill="#FFFFFF" d="M73.78,124.842c0,2.507-1.737,3.6-3.376,3.6c-1.835,0-3.25-1.345-3.25-3.488c0-2.269,1.484-3.6,3.362-3.6
				C72.463,121.354,73.78,122.769,73.78,124.842z M68.401,124.912c0,1.485,0.854,2.605,2.059,2.605c1.177,0,2.06-1.106,2.06-2.633
				c0-1.148-0.574-2.605-2.031-2.605S68.401,123.624,68.401,124.912z"/>
			<path fill="#FFFFFF" d="M81.466,124.842c0,2.507-1.737,3.6-3.376,3.6c-1.835,0-3.25-1.345-3.25-3.488
				c0-2.269,1.484-3.6,3.362-3.6C80.148,121.354,81.466,122.769,81.466,124.842z M76.087,124.912c0,1.485,0.854,2.605,2.059,2.605
				c1.177,0,2.06-1.106,2.06-2.633c0-1.148-0.574-2.605-2.031-2.605S76.087,123.624,76.087,124.912z"/>
			<path fill="#FFFFFF" d="M88.872,118.343v8.194c0,0.603,0.014,1.289,0.056,1.751h-1.106l-0.056-1.177h-0.028
				c-0.378,0.756-1.205,1.331-2.312,1.331c-1.639,0-2.899-1.387-2.899-3.446c-0.014-2.255,1.387-3.642,3.04-3.642
				c1.036,0,1.736,0.49,2.045,1.037h0.028v-4.048H88.872z M87.64,124.268c0-0.154-0.015-0.364-0.057-0.519
				c-0.182-0.784-0.854-1.429-1.778-1.429c-1.275,0-2.031,1.121-2.031,2.62c0,1.373,0.672,2.507,2.003,2.507
				c0.826,0,1.583-0.546,1.807-1.471c0.042-0.168,0.057-0.336,0.057-0.533V124.268z"/>
			<path fill="#FFFFFF" d="M45.309,141.418h0.028c0.168-0.238,0.406-0.532,0.602-0.771l1.989-2.339h1.485l-2.62,2.788l2.984,3.992
				h-1.499l-2.34-3.25l-0.63,0.701v2.549H44.09v-9.945h1.219V141.418z"/>
			<path fill="#FFFFFF" d="M50.894,140.143c0-0.7-0.014-1.274-0.056-1.835h1.093L52,139.429h0.028
				c0.336-0.644,1.12-1.274,2.241-1.274c0.938,0,2.396,0.56,2.396,2.885v4.048h-1.233v-3.908c0-1.092-0.406-2.003-1.568-2.003
				c-0.812,0-1.442,0.574-1.653,1.261c-0.056,0.154-0.084,0.364-0.084,0.574v4.076h-1.232V140.143z"/>
			<path fill="#FFFFFF" d="M64.8,141.642c0,2.507-1.737,3.6-3.376,3.6c-1.835,0-3.25-1.345-3.25-3.488c0-2.269,1.484-3.6,3.362-3.6
				C63.482,138.154,64.8,139.569,64.8,141.642z M59.421,141.712c0,1.485,0.854,2.605,2.059,2.605c1.177,0,2.06-1.106,2.06-2.633
				c0-1.148-0.574-2.605-2.031-2.605S59.421,140.423,59.421,141.712z"/>
			<path fill="#FFFFFF" d="M66.742,138.308l0.896,3.446c0.196,0.757,0.378,1.457,0.504,2.157h0.043
				c0.153-0.686,0.378-1.415,0.602-2.143l1.106-3.46h1.037l1.051,3.39c0.252,0.812,0.448,1.527,0.602,2.213h0.042
				c0.112-0.686,0.295-1.4,0.519-2.199l0.967-3.404h1.219l-2.186,6.78h-1.12l-1.037-3.236c-0.238-0.756-0.434-1.429-0.602-2.227
				h-0.028c-0.168,0.812-0.378,1.513-0.616,2.241l-1.093,3.222h-1.121l-2.045-6.78H66.742z"/>
			<path fill="#FFFFFF" d="M76.556,135.143h1.232v9.945h-1.232V135.143z"/>
			<path fill="#FFFFFF" d="M80.546,141.922c0.028,1.667,1.093,2.353,2.325,2.353c0.883,0,1.415-0.154,1.877-0.35l0.21,0.882
				c-0.434,0.196-1.177,0.42-2.255,0.42c-2.087,0-3.334-1.373-3.334-3.418c0-2.045,1.205-3.656,3.18-3.656
				c2.213,0,2.802,1.947,2.802,3.193c0,0.252-0.028,0.448-0.042,0.575H80.546z M84.16,141.04c0.014-0.784-0.322-2.003-1.709-2.003
				c-1.247,0-1.793,1.148-1.892,2.003H84.16z"/>
			<path fill="#FFFFFF" d="M92.729,135.143v8.194c0,0.603,0.014,1.289,0.056,1.751h-1.106l-0.056-1.177h-0.028
				c-0.378,0.756-1.205,1.331-2.312,1.331c-1.639,0-2.899-1.387-2.899-3.446c-0.014-2.255,1.387-3.642,3.04-3.642
				c1.036,0,1.736,0.49,2.045,1.037h0.028v-4.048H92.729z M91.496,141.068c0-0.154-0.015-0.364-0.057-0.519
				c-0.182-0.784-0.854-1.429-1.779-1.429c-1.274,0-2.03,1.121-2.03,2.62c0,1.373,0.672,2.507,2.003,2.507
				c0.826,0,1.583-0.546,1.807-1.471c0.042-0.168,0.057-0.336,0.057-0.533V141.068z"/>
			<path fill="#FFFFFF" d="M100.61,138.308c-0.027,0.49-0.056,1.037-0.056,1.863v3.936c0,1.555-0.309,2.507-0.967,3.096
				c-0.658,0.616-1.61,0.812-2.465,0.812c-0.812,0-1.709-0.196-2.256-0.561l0.309-0.938c0.448,0.28,1.148,0.532,1.989,0.532
				c1.261,0,2.185-0.658,2.185-2.367v-0.756h-0.027c-0.378,0.63-1.106,1.135-2.157,1.135c-1.681,0-2.886-1.429-2.886-3.306
				c0-2.297,1.499-3.6,3.054-3.6c1.177,0,1.821,0.616,2.115,1.176h0.028l0.056-1.022H100.61z M99.336,140.984
				c0-0.21-0.014-0.393-0.07-0.561c-0.224-0.714-0.826-1.303-1.723-1.303c-1.177,0-2.017,0.995-2.017,2.563
				c0,1.331,0.672,2.438,2.003,2.438c0.756,0,1.442-0.477,1.709-1.261c0.069-0.21,0.098-0.448,0.098-0.659V140.984z"/>
			<path fill="#FFFFFF" d="M103.282,141.922c0.028,1.667,1.093,2.353,2.325,2.353c0.883,0,1.415-0.154,1.877-0.35l0.21,0.882
				c-0.434,0.196-1.177,0.42-2.255,0.42c-2.087,0-3.334-1.373-3.334-3.418c0-2.045,1.205-3.656,3.18-3.656
				c2.213,0,2.802,1.947,2.802,3.193c0,0.252-0.028,0.448-0.042,0.575H103.282z M106.896,141.04
				c0.014-0.784-0.322-2.003-1.709-2.003c-1.247,0-1.793,1.148-1.892,2.003H106.896z"/>
		</g>
		<g>
			<path fill="#FFFFFF" d="M54.796,38.945h1.492v11.083h-1.492V38.945z"/>
			<path fill="#FFFFFF" d="M61.04,38.945h1.393l1.485,4.421c0.431,1.249,0.812,2.582,1.142,3.998
				c-0.12-0.856-0.208-1.631-0.266-2.325s-0.087-1.347-0.087-1.96v-4.134H66.2v11.083h-1.396l-1.67-4.988
				c-0.152-0.464-0.297-0.94-0.434-1.429c-0.136-0.488-0.261-1-0.376-1.536c-0.01-0.067-0.025-0.148-0.047-0.244
				s-0.046-0.206-0.075-0.331c0.015,0.125,0.026,0.231,0.036,0.32c0.01,0.088,0.017,0.164,0.021,0.226l0.079,1.127l0.085,1.371
				c0.005,0.077,0.009,0.17,0.012,0.28c0.003,0.11,0.004,0.235,0.004,0.374l0.079,4.831H61.04V38.945z"/>
			<path fill="#FFFFFF" d="M67.917,38.945h3.969v1.263h-2.477v3.51h2.197v1.263h-2.197v3.783h2.477v1.263h-3.969V38.945z"/>
			<path fill="#FFFFFF" d="M73.257,38.945h3.969v1.263h-2.477v3.51h2.197v1.263h-2.197v3.783h2.477v1.263h-3.969V38.945z"/>
			<path fill="#FFFFFF" d="M78.598,38.945h1.837c0.561,0,1.031,0.062,1.414,0.187c0.354,0.12,0.67,0.333,0.947,0.639
				c0.417,0.459,0.713,1.058,0.891,1.794c0.177,0.713,0.266,1.734,0.266,3.065c0,1.22-0.099,2.215-0.295,2.986
				c-0.191,0.737-0.507,1.299-0.947,1.687c-0.541,0.483-1.51,0.725-2.907,0.725h-1.205V38.945z M80.09,48.721
				c0.909,0,1.518-0.275,1.823-0.826c0.316-0.55,0.474-1.62,0.474-3.208c0-1.708-0.15-2.883-0.452-3.524
				c-0.301-0.642-0.854-0.962-1.657-0.962H80.09V48.721z"/>
			<path fill="#FFFFFF" d="M90.061,38.945h1.162l2.376,11.083H92.12l-0.416-2.161h-2.196l-0.424,2.161h-1.436L90.061,38.945z
				 M91.488,46.711l-0.33-1.766c-0.22-1.201-0.399-2.483-0.538-3.847c-0.067,0.665-0.153,1.339-0.259,2.021
				c-0.104,0.682-0.229,1.406-0.373,2.171l-0.272,1.421H91.488z"/>
			<path fill="#FFFFFF" d="M64.263,56.261v1.321l-4.353,2.062l4.353,2.062v1.309L58.497,60.2v-1.131L64.263,56.261z"/>
			<path fill="#FFFFFF" d="M67.116,53.46v4.755c0.517-0.536,1.103-0.804,1.757-0.804c0.754,0,1.382,0.281,1.884,0.844
				c0.501,0.559,0.752,1.256,0.752,2.09c0,0.861-0.253,1.573-0.758,2.136c-0.502,0.559-1.135,0.838-1.9,0.838
				c-0.647,0-1.226-0.249-1.734-0.747v0.586h-1.292V53.46H67.116z M70.188,60.403c0-0.536-0.146-0.972-0.437-1.309
				c-0.295-0.345-0.664-0.517-1.108-0.517c-0.475,0-0.861,0.167-1.16,0.5c-0.295,0.329-0.441,0.758-0.441,1.286
				c0,0.543,0.145,0.978,0.436,1.303c0.291,0.333,0.674,0.5,1.148,0.5c0.448,0,0.819-0.167,1.114-0.5
				C70.039,61.33,70.188,60.908,70.188,60.403z"/>
			<path fill="#FFFFFF" d="M72.876,57.566h1.292v0.5c0.237-0.249,0.448-0.419,0.632-0.511c0.188-0.096,0.409-0.144,0.666-0.144
				c0.341,0,0.696,0.111,1.068,0.333l-0.592,1.183c-0.245-0.176-0.484-0.264-0.718-0.264c-0.704,0-1.057,0.532-1.057,1.596v2.9
				h-1.292V57.566z"/>
			<path fill="#FFFFFF" d="M81.443,54.343l1.068,0.471l-5.076,11.749l-1.057-0.477L81.443,54.343z"/>
			<path fill="#FFFFFF" d="M83.298,63.02v-1.321l4.348-2.056l-4.348-2.067v-1.309l5.76,2.813v1.131L83.298,63.02z"/>
		</g>
	</g>
	<path fill="#FFFFFF" d="M79.341,104.862c0,0,0.209-1.188,0.273-1.59c0.787-0.381,2.039-0.691,3.205-0.014
		c0.758,0.443,1.174,1.213,1.26,2.107c0.105,1.082-0.393,2.195-1.371,3.055c-1.195,1.051-3.379,1.977-5.01,2.508
		c0.32-0.535,0.541-1.074,0.699-1.543c1.285-0.494,2.699-1.166,3.508-1.877c0.682-0.6,1.033-1.338,0.965-2.025
		c-0.047-0.502-0.316-0.93-0.734-1.174C80.915,103.597,79.356,104.851,79.341,104.862z M68.993,112.269h6.787
		c1.709-1.201,2.207-3.191,2.416-4.025c0.271-1.092,0.863-4.697,1.031-5.742c-0.557,0-13.125,0-13.68,0
		c0.166,1.045,0.756,4.65,1.029,5.74C66.784,109.077,67.284,111.065,68.993,112.269z M78.735,114.626
		c2.895-0.533,4.83-1.346,5.838-1.852c-1.723,0-22.279,0-24,0c1.006,0.506,2.945,1.318,5.84,1.852H78.735z M78.665,115.132
		c-0.832,0-11.35,0-12.182,0c0.26,0.404,0.613,0.953,0.709,1.102c0.266,0,10.498,0,10.764,0
		C78.052,116.085,78.403,115.536,78.665,115.132z"/>
</g>
<line fill="none" x1="-50" y1="107" x2="-50" y2="-5"/>
<line fill="none" x1="590" y1="196" x2="165" y2="107"/>
<line fill="none" x1="-53.771" y1="-11.874" x2="586.229" y2="189.126"/>
<g>
</g>
<g>
</g>
<g>
</g>
<g>
</g>
<g>
</g>
<g>
</g>
<g>
</g>
<g>
</g>
<g>
</g>
<g>
</g>
<g>
</g>
<g>
</g>
<g>
</g>
<g>
</g>
<g>
</g>
</svg>
